<svg width="24" height="24" viewBox="0 0 24 24" fill="none" xmlns="http://www.w3.org/2000/svg">
<path opacity="0.4" d="M19.24 5.579H18.84L15.46 2.199C15.328 2.06916 15.1502 1.9964 14.965 1.9964C14.7798 1.9964 14.602 2.06916 14.47 2.199C14.2 2.469 14.2 2.909 14.47 3.189L16.86 5.579H7.14L9.53 3.189C9.8 2.919 9.8 2.479 9.53 2.199C9.39796 2.06916 9.22019 1.9964 9.035 1.9964C8.84981 1.9964 8.67204 2.06916 8.54 2.199L5.17 5.579H4.77C3.87 5.579 2 5.579 2 8.139C2 9.109 2.2 9.749 2.62 10.169C2.86 10.419 3.15 10.549 3.46 10.619C3.75 10.689 4.06 10.699 4.36 10.699H19.64C19.95 10.699 20.24 10.679 20.52 10.619C21.36 10.419 22 9.819 22 8.139C22 5.579 20.13 5.579 19.24 5.579Z" fill="#17ACBE"/>
<path d="M19.65 10.701H4.35996C4.05996 10.701 3.74996 10.691 3.45996 10.621L4.71996 18.301C4.99996 20.021 5.74996 22.001 9.07996 22.001H14.69C18.06 22.001 18.66 20.311 19.02 18.421L20.53 10.621C20.25 10.681 19.95 10.701 19.65 10.701ZM10.61 17.161C10.61 17.551 10.3 17.861 9.90996 17.861C9.51996 17.861 9.20996 17.551 9.20996 17.161V13.861C9.20996 13.471 9.51996 13.161 9.90996 13.161C10.3 13.161 10.61 13.471 10.61 13.861V17.161ZM14.89 17.161C14.89 17.551 14.58 17.861 14.19 17.861C13.8 17.861 13.49 17.551 13.49 17.161V13.861C13.49 13.471 13.8 13.161 14.19 13.161C14.58 13.161 14.89 13.471 14.89 13.861V17.161Z" fill="#17ACBE"/>
</svg>
