<svg width="24" height="24" viewBox="0 0 24 24" fill="none" xmlns="http://www.w3.org/2000/svg">
<path d="M15.8401 21.9983H8.1601C3.9701 21.9983 3.1401 19.4683 4.5001 16.3883L5.9401 13.1183C5.9401 13.1183 9.0001 12.9983 12.0001 13.9983C15.0001 14.9983 17.8301 13.1083 17.8301 13.1083L18.0201 12.9883L19.5101 16.3983C20.8501 19.4783 19.9701 21.9983 15.8401 21.9983Z" fill="#17ACBE"/>
<path opacity="0.4" d="M18.0199 12.99L17.8299 13.11C17.8299 13.11 14.9999 15 11.9999 14C8.99994 13 5.93994 13.12 5.93994 13.12L8.73994 6.74H8.43994C7.78994 6.74 7.18994 6.48 6.75994 6.05C6.42925 5.71759 6.20436 5.29473 6.1136 4.83471C6.02284 4.37469 6.07028 3.8981 6.24994 3.465C6.42959 3.0319 6.73343 2.66166 7.12316 2.40096C7.51288 2.14025 7.97106 2.00074 8.43994 2H15.5499C16.2099 2 16.7999 2.27 17.2299 2.7C17.7899 3.26 18.0799 4.08 17.8599 4.95C17.5999 6.03 16.5599 6.74 15.4399 6.74H15.2799L18.0199 12.99Z" fill="#17ACBE"/>
</svg>
