<svg width="25" height="25" viewBox="0 0 25 25" fill="none" xmlns="http://www.w3.org/2000/svg">
<g clip-path="url(#clip0_234_33)">
<path opacity="0.4" d="M2.16675 12.9544V11.0477C2.16675 9.92108 3.08758 8.98941 4.22508 8.98941C6.18591 8.98941 6.98758 7.60275 6.00175 5.90191C5.43841 4.92691 5.77425 3.65941 6.76008 3.09608L8.63425 2.02358C9.49008 1.51441 10.5951 1.81775 11.1042 2.67358L11.2234 2.87941C12.1984 4.58025 13.8017 4.58025 14.7876 2.87941L14.9067 2.67358C15.4159 1.81775 16.5209 1.51441 17.3767 2.02358L19.2509 3.09608C20.2367 3.65941 20.5726 4.92691 20.0092 5.90191C19.0234 7.60275 19.8251 8.98941 21.7859 8.98941C22.9126 8.98941 23.8442 9.91025 23.8442 11.0477V12.9544C23.8442 14.0811 22.9234 15.0127 21.7859 15.0127C19.8251 15.0127 19.0234 16.3994 20.0092 18.1002C20.5726 19.0861 20.2367 20.3427 19.2509 20.9061L17.3767 21.9786C16.5209 22.4877 15.4159 22.1844 14.9067 21.3286L14.7876 21.1227C13.8126 19.4219 12.2092 19.4219 11.2234 21.1227L11.1042 21.3286C10.5951 22.1844 9.49008 22.4877 8.63425 21.9786L6.76008 20.9061C6.28786 20.6342 5.94279 20.186 5.80062 19.66C5.65845 19.134 5.73078 18.573 6.00175 18.1002C6.98758 16.3994 6.18591 15.0127 4.22508 15.0127C3.08758 15.0127 2.16675 14.0811 2.16675 12.9544Z" fill="#17ACBE"/>
<path d="M13.0001 15.5208C13.9339 15.5208 14.8294 15.1499 15.4897 14.4896C16.15 13.8293 16.5209 12.9338 16.5209 12C16.5209 11.0662 16.15 10.1707 15.4897 9.51039C14.8294 8.8501 13.9339 8.47916 13.0001 8.47916C12.0663 8.47916 11.1708 8.8501 10.5105 9.51039C9.85019 10.1707 9.47925 11.0662 9.47925 12C9.47925 12.9338 9.85019 13.8293 10.5105 14.4896C11.1708 15.1499 12.0663 15.5208 13.0001 15.5208Z" fill="#17ACBE"/>
</g>
<defs>
<clipPath id="clip0_234_33">
<rect width="25" height="25" fill="white"/>
</clipPath>
</defs>
</svg>
