<svg width="25" height="25" viewBox="0 0 25 25" fill="none" xmlns="http://www.w3.org/2000/svg">
<path opacity="0.4" d="M21.875 2.08334V14.6875C21.875 16.6667 20.8333 17.7083 18.8542 17.7083H6.14583C4.16667 17.7083 3.125 16.6667 3.125 14.6875V2.08334H21.875Z" fill="#17ACBE"/>
<path d="M22.9166 2.86459H2.08325C1.65617 2.86459 1.302 2.51043 1.302 2.08334C1.302 1.65626 1.65617 1.30209 2.08325 1.30209H22.9166C23.3437 1.30209 23.6978 1.65626 23.6978 2.08334C23.6978 2.51043 23.3437 2.86459 22.9166 2.86459ZM17.3645 23.2708C17.2291 23.5417 16.9478 23.6979 16.6666 23.6979C16.552 23.6979 16.427 23.6667 16.3228 23.6146L12.4999 21.7083L8.677 23.6146C8.57283 23.6667 8.44783 23.6979 8.33325 23.6979C8.052 23.6979 7.77075 23.5417 7.63533 23.2708C7.58756 23.1789 7.55881 23.0782 7.55082 22.9749C7.54282 22.8716 7.55574 22.7677 7.5888 22.6695C7.62186 22.5713 7.67439 22.4808 7.74324 22.4033C7.81208 22.3259 7.89584 22.2631 7.9895 22.2188L11.7187 20.3542V17.7083H13.2812V20.3542L17.0103 22.2188C17.4062 22.4063 17.5624 22.875 17.3645 23.2708ZM7.81242 12.2396C7.65093 12.2406 7.49311 12.1915 7.36067 12.0991C7.22823 12.0067 7.12768 11.8755 7.07286 11.7236C7.01803 11.5717 7.01163 11.4065 7.05453 11.2508C7.09743 11.0951 7.18753 10.9566 7.31242 10.8542L10.5937 8.11459C10.8958 7.86459 11.2812 7.76043 11.6458 7.82293C12.0208 7.88543 12.3437 8.11459 12.5416 8.44793L13.6353 10.2708L16.6874 7.72918C16.7666 7.66314 16.8581 7.61343 16.9565 7.58291C17.055 7.55239 17.1586 7.54166 17.2612 7.55134C17.3638 7.56103 17.4635 7.59093 17.5546 7.63933C17.6456 7.68773 17.7262 7.75367 17.7916 7.83334C18.0728 8.16668 18.0208 8.65626 17.6874 8.93751L14.4062 11.6771C14.1041 11.9271 13.7187 12.0313 13.3541 11.9688C12.9791 11.9063 12.6562 11.6771 12.4583 11.3438L11.3645 9.52084L8.31242 12.0625C8.16658 12.1771 7.9895 12.2396 7.81242 12.2396Z" fill="#17ACBE"/>
</svg>
