<svg width="26" height="26" viewBox="0 0 29 29" fill="none" xmlns="http://www.w3.org/2000/svg">
<path opacity="0.4" d="M14.5001 26.5834C21.1737 26.5834 26.5834 21.1736 26.5834 14.5C26.5834 7.8264 21.1737 2.41669 14.5001 2.41669C7.82646 2.41669 2.41675 7.8264 2.41675 14.5C2.41675 21.1736 7.82646 26.5834 14.5001 26.5834Z" fill="#17ACBE"/>
<path d="M14.4999 18.1371C14.2704 18.1371 14.0408 18.0525 13.8595 17.8713L9.59411 13.6058C9.42557 13.4353 9.33105 13.2052 9.33105 12.9654C9.33105 12.7257 9.42557 12.4955 9.59411 12.325C9.94453 11.9746 10.5245 11.9746 10.8749 12.325L14.4999 15.95L18.1249 12.325C18.4754 11.9746 19.0554 11.9746 19.4058 12.325C19.7562 12.6754 19.7562 13.2554 19.4058 13.6058L15.1404 17.8713C14.9591 18.0525 14.7295 18.1371 14.4999 18.1371Z" fill="#17ACBE"/>
</svg>
