<svg width="27" height="25" viewBox="0 0 27 25" fill="none" xmlns="http://www.w3.org/2000/svg">
<path opacity="0.4" d="M13.44 4.72111L7.21277 9.20111L3.57277 6.73711C3.42251 6.63654 3.29897 6.50091 3.21283 6.34193C3.12669 6.18296 3.08052 6.00541 3.07832 5.82461C3.07611 5.6438 3.11793 5.46518 3.20017 5.30415C3.28241 5.14312 3.4026 5.00452 3.55037 4.90031L7.83997 1.80911C8.22077 1.54031 8.73597 1.52911 9.11677 1.78671L13.44 4.72111ZM23.3072 6.73487L19.6672 9.19887L13.44 4.71887L17.7632 1.79567C18.1552 1.53807 18.6592 1.53807 19.04 1.81807L23.3296 4.90927C23.968 5.35727 23.9568 6.29807 23.3072 6.73487ZM13.44 13.68L8.46717 17.04L5.59997 14.9792L3.53917 13.5008C2.91197 13.0416 2.92317 12.1008 3.56157 11.664L7.20157 9.19999L13.44 13.68ZM23.3072 11.664C23.9568 12.1008 23.968 13.0416 23.3296 13.5008L21.28 14.9792L18.4128 17.04L13.44 13.68L19.6672 9.19999L23.3072 11.664Z" fill="#17ACBE"/>
<path d="M21.2801 14.9792V18.3056C21.2801 18.7424 21.0225 19.1344 20.6305 19.3248L13.9105 22.4272C13.6081 22.5616 13.2721 22.5616 12.9697 22.4272L6.2497 19.3248C5.8577 19.1456 5.6001 18.7424 5.6001 18.3056V14.9792L8.4673 17.04L13.4401 13.68L18.4129 17.04L21.2801 14.9792Z" fill="#17ACBE"/>
</svg>
