<svg width="24" height="24" viewBox="0 0 131 132" fill="none" xmlns="http://www.w3.org/2000/svg">
<path opacity="0.4" d="M84.4948 16.5H41.0465C22.2153 16.5 10.9165 27.83 10.9165 46.86V90.585C10.9165 109.67 22.2153 121 41.0465 121H84.4403C103.326 121 114.57 109.67 114.57 90.64V46.86C114.625 27.83 103.326 16.5 84.4948 16.5Z" fill="#17ACBE"/>
<path d="M114.734 16.3791C104.964 6.47907 95.4115 6.25906 85.3682 16.3791L79.2003 22.5391C78.6544 23.0891 78.4907 23.8591 78.709 24.5741C82.5299 38.0491 93.2282 48.8291 106.601 52.6791C106.765 52.7341 107.038 52.7341 107.202 52.7341C107.747 52.7341 108.293 52.5141 108.675 52.1291L114.734 45.9691C119.701 40.9641 122.157 36.1791 122.157 31.2841C122.157 26.3341 119.701 21.4391 114.734 16.3791ZM97.4857 57.3101C96.0119 56.5951 94.5928 55.8801 93.2828 55.0551C92.1911 54.3951 91.0994 53.6801 90.0624 52.9101C89.189 52.3601 88.2065 51.5351 87.224 50.7101C87.1148 50.6551 86.7873 50.3801 86.3507 49.9401C84.6586 48.5651 82.8574 46.6951 81.1653 44.6601C81.0561 44.5501 80.7286 44.2201 80.4557 43.7251C79.9099 43.1201 79.0911 42.0751 78.3815 40.9201C77.7811 40.1501 77.0715 39.0501 76.4165 37.8951C75.5978 36.5201 74.8882 35.1451 74.2332 33.7151C73.5236 32.1751 72.9778 30.7451 72.4865 29.3701L43.1207 58.9601C41.2103 60.8851 39.3544 64.5151 38.9724 67.2101L36.6253 83.6001C36.134 87.0651 37.0619 90.3101 39.1907 92.4551C40.9919 94.2701 43.4482 95.2051 46.1774 95.2051C46.7778 95.2051 47.3782 95.1501 47.9786 95.0951L64.1899 92.7851C66.8644 92.4001 70.4669 90.5851 72.3774 88.6051L101.743 59.0151C100.379 58.5751 99.014 57.9701 97.4857 57.3101Z" fill="#17ACBE"/>
</svg>
