<svg width="24" height="23" viewBox="0 0 24 23" fill="none" xmlns="http://www.w3.org/2000/svg">
<path opacity="0.4" d="M18.04 12.55C17.62 12.96 17.38 13.55 17.44 14.18C17.53 15.26 18.52 16.05 19.6 16.05H21.5V17.24C21.5 19.31 19.81 21 17.74 21H6.26C4.19 21 2.5 19.31 2.5 17.24V10.51C2.5 8.44 4.19 6.75 6.26 6.75H17.74C19.81 6.75 21.5 8.44 21.5 10.51V11.95H19.48C18.92 11.95 18.41 12.17 18.04 12.55Z" fill="#17ACBE"/>
<path d="M14.85 2.95199V6.75199H6.26C4.19 6.75199 2.5 8.44199 2.5 10.512V6.84199C2.5 5.65199 3.23 4.59199 4.34 4.17199L12.28 1.17199C13.52 0.711989 14.85 1.62199 14.85 2.95199ZM22.559 12.97V15.03C22.559 15.58 22.119 16.03 21.559 16.05H19.599C18.519 16.05 17.529 15.26 17.439 14.18C17.379 13.55 17.619 12.96 18.039 12.55C18.409 12.17 18.919 11.95 19.479 11.95H21.559C22.119 11.97 22.559 12.42 22.559 12.97ZM14 11.75H7C6.59 11.75 6.25 11.41 6.25 11C6.25 10.59 6.59 10.25 7 10.25H14C14.41 10.25 14.75 10.59 14.75 11C14.75 11.41 14.41 11.75 14 11.75Z" fill="#17ACBE"/>
</svg>
