<svg width="24" height="24" viewBox="0 0 132 131" fill="none" xmlns="http://www.w3.org/2000/svg">
<path opacity="0.4" d="M113.3 22.3901V34.3984C113.3 38.7651 110.55 44.2234 107.8 46.9526L84.1498 67.6942C80.8498 70.4234 78.6498 75.8817 78.6498 80.2484V103.719C78.6498 106.994 76.4498 111.361 73.6998 112.998L65.9998 117.911C58.8498 122.278 48.9498 117.365 48.9498 108.632V79.7026C48.9498 75.8817 46.7498 70.9692 44.5498 68.2401L39.0498 62.5088L71.0598 11.4734H102.3C108.35 11.4734 113.3 16.3859 113.3 22.3901Z" fill="#17ACBE"/>
<path d="M62.1502 11.4734L33.6602 56.8321L23.6502 46.4067C20.9002 43.6776 18.7002 38.7651 18.7002 35.4901V22.9359C18.7002 16.3859 23.6502 11.4734 29.7002 11.4734H62.1502Z" fill="#17ACBE"/>
</svg>
