<svg width="23" height="23" viewBox="0 0 132 131" fill="none" xmlns="http://www.w3.org/2000/svg">
<path d="M115.335 87.3333H99.165C92.18 87.3333 88 91.4816 88 98.4137V114.461C88 121.393 92.18 125.542 99.165 125.542H115.335C122.32 125.542 126.5 121.393 126.5 114.461V98.4137C126.5 91.4816 122.32 87.3333 115.335 87.3333ZM116.545 105.4C116.227 105.714 115.849 105.962 115.434 106.131C115.018 106.3 114.574 106.385 114.125 106.383C113.676 106.385 113.232 106.3 112.816 106.131C112.401 105.962 112.023 105.714 111.705 105.4L110.715 104.418V116.645C110.715 118.555 109.175 120.083 107.25 120.083C105.325 120.083 103.785 118.555 103.785 116.645V104.418L102.795 105.4C101.475 106.71 99.275 106.71 97.955 105.4C97.3208 104.759 96.9655 103.897 96.9655 102.999C96.9655 102.1 97.3208 101.238 97.955 100.597L104.83 93.7741C105.105 93.5012 105.49 93.2828 105.875 93.1191C105.985 93.0645 106.095 93.0645 106.205 93.0099C106.48 92.9008 106.755 92.8462 107.085 92.8462H107.415C107.8 92.8462 108.13 92.9007 108.515 93.0645H108.625C109.01 93.2282 109.34 93.4466 109.615 93.7195C109.67 93.7741 109.67 93.7741 109.725 93.7741L116.6 100.597C117.92 101.907 117.92 104.09 116.545 105.4Z" fill="#17ACBE"/>
<path opacity="0.4" d="M88 114.461V98.4137C88 91.4816 92.18 87.3333 99.165 87.3333H115.335C117.535 87.3333 119.405 87.77 121 88.5341V42.6295C121 22.7612 109.065 10.9166 89.045 10.9166H42.955C22.935 10.9166 11 22.7612 11 42.6295V88.3158C11 108.239 22.935 120.083 42.955 120.083H89.21C88.44 118.5 88 116.645 88 114.461Z" fill="#17ACBE"/>
<path d="M88 55.5167C90.255 55.5167 92.125 53.6609 92.125 51.423C92.125 49.185 90.255 47.3292 88 47.3292H74.745L76.175 34.6659C76.2972 33.5877 75.9838 32.5054 75.3034 31.6562C74.6229 30.807 73.631 30.2601 72.545 30.1355C71.4605 30.0243 70.3754 30.3392 69.5221 31.0126C68.6688 31.686 68.1152 32.6644 67.98 33.738L66.44 47.3292H57.365L58.795 34.6659C58.9172 33.5877 58.6038 32.5054 57.9234 31.6562C57.2429 30.807 56.251 30.2601 55.165 30.1355C54.0786 30.0141 52.988 30.3252 52.1323 31.0005C51.2767 31.6758 50.7256 32.6602 50.6 33.738L49.06 47.3292H35.86C33.605 47.3292 31.735 49.185 31.735 51.423C31.735 53.6609 33.605 55.5167 35.86 55.5167H48.125L47.135 64.5775H33C30.745 64.5775 28.875 66.4334 28.875 68.6713C28.875 70.9092 30.745 72.765 33 72.765H46.255L44.825 85.4284C44.55 87.6663 46.2 89.6859 48.455 89.9588H48.895C50.985 89.9588 52.745 88.4305 52.965 86.3017L54.505 72.7105H63.58L62.15 85.3738C61.875 87.6117 63.525 89.6313 65.78 89.9042H66.22C68.31 89.9042 70.07 88.3759 70.29 86.2471L71.83 72.6559H85.03C87.285 72.6559 89.155 70.8 89.155 68.5621C89.155 66.3242 87.285 64.4684 85.03 64.4684H72.765L73.755 55.4075H88V55.5167ZM64.515 64.5775H55.44L56.43 55.5167H65.505L64.515 64.5775Z" fill="#17ACBE"/>
</svg>
