<svg width="24" height="24" viewBox="0 0 131 131" fill="none" xmlns="http://www.w3.org/2000/svg">
<path d="M98.25 81.8751V103.708C98.25 112.715 90.8812 120.083 81.875 120.083H49.125C40.1187 120.083 32.75 112.715 32.75 103.708V76.3076L53.9829 76.4168C57.9675 76.4168 61.8975 77.3447 65.5 79.146C69.1025 80.9472 73.0325 81.8751 77.0717 81.8751H98.25Z" fill="#17ACBE"/>
<path opacity="0.4" d="M98.25 59.1138V81.875H77.0717C73.0325 81.875 69.1025 80.9471 65.5 79.1458C61.9255 77.3527 57.982 76.4183 53.9829 76.4167L32.75 76.3075V59.1138C32.75 56.6029 34.1692 53.1642 35.9704 51.3629L47.5421 39.7912C48.5246 38.8087 49.125 37.3896 49.125 35.9704V26.8004C49.9983 27.1279 50.8717 27.2917 51.8542 27.2917H79.1458C80.1283 27.2917 81.0017 27.1279 81.875 26.8004V35.9704C81.875 37.3896 82.4754 38.8087 83.4579 39.7912L95.0296 51.3629C96.8308 53.1642 98.25 56.6029 98.25 59.1138Z" fill="#17ACBE"/>
<path d="M79.146 10.9166H51.8544C49.9261 10.917 48.0601 11.5987 46.5858 12.8415C45.1115 14.0843 44.1238 15.8082 43.7973 17.7086C43.4708 19.609 43.8264 21.5636 44.8013 23.2273C45.7762 24.8909 47.3077 26.1564 49.1252 26.8004C49.9985 27.1279 50.8719 27.2916 51.8544 27.2916H79.146C80.1285 27.2916 81.0019 27.1279 81.8752 26.8004C83.6928 26.1564 85.2242 24.8909 86.1991 23.2273C87.1741 21.5636 87.5297 19.609 87.2031 17.7086C86.8766 15.8082 85.889 14.0843 84.4147 12.8415C82.9404 11.5987 81.0743 10.917 79.146 10.9166Z" fill="#17ACBE"/>
</svg>
