<svg width="27" height="25" viewBox="0 0 27 25" fill="none" xmlns="http://www.w3.org/2000/svg">
<path opacity="0.4" d="M24.2591 9.69055L23.1615 14.3721C22.2207 18.4153 20.3615 20.0505 16.8671 19.7145C16.3071 19.6697 15.7023 19.5689 15.0527 19.4121L13.1711 18.9641C8.50069 17.8553 7.05589 15.5481 8.15349 10.8665L9.25109 6.17375C9.47509 5.22175 9.74389 4.39295 10.0799 3.70975C11.3903 0.999346 13.6191 0.271346 17.3599 1.15615L19.2303 1.59295C23.9231 2.69055 25.3567 5.00895 24.2591 9.69055Z" fill="#17ACBE"/>
<path d="M16.8651 19.719C16.1707 20.1894 15.2971 20.5814 14.2331 20.9286L12.4635 21.511C8.01706 22.9446 5.67626 21.7462 4.23146 17.2998L2.79786 12.8758C1.36426 8.42943 2.55146 6.07743 6.99786 4.64383L8.76746 4.06143C9.22666 3.91583 9.66346 3.79263 10.0779 3.71423C9.74186 4.39743 9.47306 5.22623 9.24906 6.17823L8.15146 10.871C7.05386 15.5526 8.49866 17.8598 13.1691 18.9686L15.0507 19.4166C15.7003 19.5734 16.3051 19.6742 16.8651 19.719ZM19.5889 9.77343C19.5217 9.77343 19.4545 9.76223 19.3761 9.75103L13.9441 8.37343C13.742 8.30679 13.5727 8.16593 13.4705 7.9793C13.3682 7.79267 13.3406 7.57419 13.3932 7.368C13.4459 7.1618 13.5748 6.98326 13.7539 6.86845C13.9331 6.75363 14.1492 6.71109 14.3585 6.74943L19.7905 8.12703C19.9852 8.17959 20.1544 8.30063 20.2671 8.46791C20.3797 8.63519 20.4282 8.83749 20.4037 9.03766C20.3792 9.23784 20.2833 9.42246 20.1336 9.55761C19.9839 9.69277 19.7905 9.7694 19.5889 9.77343Z" fill="#17ACBE"/>
<path d="M16.3082 13.5557C16.241 13.5557 16.1738 13.5445 16.0954 13.5333L12.8362 12.7045C12.6341 12.6378 12.4648 12.497 12.3626 12.3104C12.2603 12.1237 12.2327 11.9052 12.2854 11.6991C12.338 11.4929 12.4669 11.3143 12.6461 11.1995C12.8252 11.0847 13.0413 11.0422 13.2506 11.0805L16.5098 11.9093C16.9578 12.0213 17.2266 12.4805 17.1146 12.9285C17.025 13.3093 16.689 13.5557 16.3082 13.5557Z" fill="#17ACBE"/>
</svg>
