<svg width="26" height="26" viewBox="0 0 35 35" fill="none" xmlns="http://www.w3.org/2000/svg">
<path opacity="0.4" d="M28.2042 21.1283L26.7459 18.7075C26.4397 18.1679 26.1626 17.1471 26.1626 16.5492V12.8596C26.1626 8.10542 22.298 4.22626 17.5292 4.22626C12.7605 4.22626 8.89591 8.10542 8.89591 12.8596V16.5492C8.89591 17.1471 8.61883 18.1679 8.31258 18.6929L6.83966 21.1283C6.25633 22.1054 6.12508 23.1846 6.48966 24.1763C6.83966 25.1533 7.67091 25.9117 8.75008 26.2763C11.5792 27.2388 14.5542 27.7054 17.5292 27.7054C20.5042 27.7054 23.4792 27.2388 26.3084 26.2908C27.3292 25.9554 28.1167 25.1825 28.4959 24.1763C28.8751 23.17 28.773 22.0617 28.2042 21.1283Z" fill="#17ACBE"/>
<path d="M20.7812 4.84169C19.775 4.44794 18.6812 4.22919 17.5291 4.22919C16.3916 4.22919 15.2979 4.43335 14.2916 4.84169C14.9187 3.66044 16.1583 2.91669 17.5291 2.91669C18.9145 2.91669 20.1395 3.66044 20.7812 4.84169ZM21.627 29.1813C21.3204 30.0302 20.7597 30.7642 20.0213 31.2834C19.283 31.8026 18.4026 32.0819 17.5 32.0834C16.3479 32.0834 15.2104 31.6167 14.4083 30.7854C13.9416 30.3479 13.5916 29.7646 13.3875 29.1667C13.577 29.1959 13.7666 29.2104 13.9708 29.2396C14.3062 29.2834 14.6562 29.3271 15.0062 29.3563C15.8375 29.4292 16.6833 29.4729 17.5291 29.4729C18.3604 29.4729 19.1916 29.4292 20.0083 29.3563C20.3145 29.3271 20.6208 29.3125 20.9125 29.2688L21.627 29.1813Z" fill="#17ACBE"/>
</svg>
