<svg width="28" height="28" viewBox="0 0 28 28" fill="none" xmlns="http://www.w3.org/2000/svg">
<path opacity="0.4" d="M24.2591 11.6905L23.1615 16.3721C22.2207 20.4153 20.3615 22.0505 16.8671 21.7145C16.3071 21.6697 15.7023 21.5689 15.0527 21.4121L13.1711 20.9641C8.50069 19.8553 7.05589 17.5481 8.15349 12.8665L9.25109 8.17375C9.47509 7.22175 9.74389 6.39295 10.0799 5.70975C11.3903 2.99935 13.6191 2.27135 17.3599 3.15615L19.2303 3.59295C23.9231 4.69055 25.3567 7.00895 24.2591 11.6905Z" fill="#17ACBE"/>
<path d="M16.8646 21.719C16.1702 22.1894 15.2966 22.5814 14.2326 22.9286L12.463 23.511C8.01657 24.9446 5.67577 23.7462 4.23097 19.2998L2.79737 14.8758C1.36377 10.4294 2.55097 8.07743 6.99737 6.64383L8.76697 6.06143C9.22617 5.91583 9.66297 5.79263 10.0774 5.71423C9.74137 6.39743 9.47257 7.22623 9.24857 8.17823L8.15097 12.871C7.05337 17.5526 8.49817 19.8598 13.1686 20.9686L15.0502 21.4166C15.6998 21.5734 16.3046 21.6742 16.8646 21.719ZM19.5884 11.7734C19.5212 11.7734 19.454 11.7622 19.3756 11.751L13.9436 10.3734C13.7415 10.3068 13.5722 10.1659 13.47 9.9793C13.3678 9.79267 13.3401 9.57419 13.3928 9.368C13.4454 9.1618 13.5743 8.98326 13.7535 8.86845C13.9326 8.75363 14.1487 8.71109 14.358 8.74943L19.79 10.127C19.9847 10.1796 20.1539 10.3006 20.2666 10.4679C20.3792 10.6352 20.4277 10.8375 20.4032 11.0377C20.3787 11.2378 20.2828 11.4225 20.1331 11.5576C19.9835 11.6928 19.79 11.7694 19.5884 11.7734Z" fill="#17ACBE"/>
<path d="M16.3087 15.5557C16.2415 15.5557 16.1743 15.5445 16.0959 15.5333L12.8367 14.7045C12.6346 14.6378 12.4653 14.497 12.3631 14.3104C12.2608 14.1237 12.2332 13.9052 12.2858 13.6991C12.3385 13.4929 12.4674 13.3143 12.6465 13.1995C12.8257 13.0847 13.0418 13.0422 13.2511 13.0805L16.5103 13.9093C16.9583 14.0213 17.2271 14.4805 17.1151 14.9285C17.0255 15.3093 16.6895 15.5557 16.3087 15.5557Z" fill="#17ACBE"/>
</svg>
