<svg width="24" height="24" viewBox="0 0 24 24" fill="none" xmlns="http://www.w3.org/2000/svg">
<g clip-path="url(#clip0_358_39863)">
<path opacity="0.4" d="M12 2C9.38 2 7.25 4.13 7.25 6.75C7.25 9.32 9.26 11.4 11.88 11.49C11.96 11.48 12.04 11.48 12.1 11.49H12.17C13.3994 11.449 14.5646 10.9315 15.4193 10.0469C16.274 9.16234 16.7512 7.98004 16.75 6.75C16.75 4.13 14.62 2 12 2Z" fill="#17ACBE"/>
<path d="M17.08 14.149C14.29 12.289 9.73996 12.289 6.92996 14.149C5.65996 14.999 4.95996 16.149 4.95996 17.379C4.95996 18.609 5.65996 19.749 6.91996 20.589C8.31996 21.529 10.16 21.999 12 21.999C13.84 21.999 15.68 21.529 17.08 20.589C18.34 19.739 19.04 18.599 19.04 17.359C19.03 16.129 18.34 14.989 17.08 14.149Z" fill="#17ACBE"/>
<path opacity="0.4" d="M22.9901 7.33799C23.1501 9.27799 21.7701 10.978 19.8601 11.208H19.8101C19.7501 11.208 19.6901 11.208 19.6401 11.228C18.6701 11.278 17.7801 10.968 17.1101 10.398C18.1401 9.47799 18.7301 8.09799 18.6101 6.59799C18.5415 5.818 18.2766 5.06805 17.8401 4.41799C18.3641 4.16307 18.9422 4.03946 19.5247 4.05781C20.1071 4.07617 20.6763 4.23594 21.1832 4.52334C21.6901 4.81075 22.1194 5.21716 22.4342 5.70752C22.749 6.19788 22.9398 6.75746 22.9901 7.33799Z" fill="#17ACBE"/>
<path d="M24.988 16.59C24.908 17.56 24.288 18.4 23.248 18.97C22.248 19.52 20.988 19.78 19.738 19.75C20.458 19.1 20.878 18.29 20.958 17.43C21.058 16.19 20.468 15 19.288 14.05C18.618 13.52 17.838 13.1 16.988 12.79C19.198 12.15 21.978 12.58 23.688 13.96C24.608 14.7 25.078 15.63 24.988 16.59Z" fill="#17ACBE"/>
<path opacity="0.4" d="M1.01284 7.20093C0.849927 9.09303 2.25508 10.7511 4.19988 10.9754H4.2508C4.31189 10.9754 4.37298 10.9754 4.42389 10.9949C5.41157 11.0437 6.31779 10.7413 7 10.1854C5.95123 9.28809 5.35048 7.94217 5.47266 6.4792C5.54253 5.71846 5.81225 4.98703 6.2567 4.35303C5.72316 4.1044 5.13448 3.98384 4.54145 4.00174C3.94842 4.01964 3.36884 4.17547 2.8527 4.45578C2.33657 4.73609 1.89937 5.13246 1.57884 5.61071C1.25831 6.08897 1.06405 6.63473 1.01284 7.20093Z" fill="#17ACBE"/>
<path d="M-0.989109 16.5118C-0.909217 17.5818 -0.29006 18.5083 0.748524 19.1371C1.74716 19.7437 3.00545 20.0305 4.25374 19.9974C3.53472 19.2805 3.1153 18.387 3.03541 17.4384C2.93554 16.0706 3.52474 14.758 4.70313 13.7101C5.37222 13.1255 6.15116 12.6623 7 12.3203C4.79301 11.6144 2.01679 12.0887 0.309123 13.6109C-0.609625 14.4271 -1.07899 15.4529 -0.989109 16.5118Z" fill="#17ACBE"/>
</g>
<defs>
<clipPath id="clip0_358_39863">
<rect width="24" height="24" fill="white"/>
</clipPath>
</defs>
</svg>
