<svg width="20" height="20" viewBox="0 0 20 20" fill="none" xmlns="http://www.w3.org/2000/svg">
<path d="M12.0833 8.95831H7.08325C6.74159 8.95831 6.45825 8.67498 6.45825 8.33331C6.45825 7.99165 6.74159 7.70831 7.08325 7.70831H12.0833C12.4249 7.70831 12.7083 7.99165 12.7083 8.33331C12.7083 8.67498 12.4249 8.95831 12.0833 8.95831ZM9.58325 11.4583H7.08325C6.74159 11.4583 6.45825 11.175 6.45825 10.8333C6.45825 10.4916 6.74159 10.2083 7.08325 10.2083H9.58325C9.92492 10.2083 10.2083 10.4916 10.2083 10.8333C10.2083 11.175 9.92492 11.4583 9.58325 11.4583Z" fill="#52525C"/>
<path opacity="0.4" d="M9.58342 17.5C10.623 17.5 11.6525 17.2952 12.613 16.8974C13.5735 16.4996 14.4462 15.9164 15.1813 15.1813C15.9165 14.4462 16.4996 13.5734 16.8975 12.6129C17.2953 11.6524 17.5001 10.623 17.5001 9.58335C17.5001 8.54372 17.2953 7.51427 16.8975 6.55378C16.4996 5.59328 15.9165 4.72056 15.1813 3.98542C14.4462 3.25029 13.5735 2.66716 12.613 2.26931C11.6525 1.87146 10.623 1.66669 9.58342 1.66669C7.48378 1.66669 5.47015 2.50076 3.98549 3.98542C2.50082 5.47009 1.66675 7.48372 1.66675 9.58335C1.66675 11.683 2.50082 13.6966 3.98549 15.1813C5.47015 16.6659 7.48378 17.5 9.58342 17.5Z" fill="#52525C"/>
<path d="M19.1367 20C18.9155 20 18.6944 19.9139 18.5346 19.754L16.249 17.4666C16.0894 17.3042 16 17.0855 16 16.8578C16 16.6301 16.0894 16.4114 16.249 16.249C16.5808 15.917 17.1214 15.917 17.4655 16.249L19.7512 18.5365C20.0829 18.8686 20.0829 19.4097 19.7512 19.754C19.5791 19.9139 19.3579 20 19.1367 20Z" fill="#52525C"/>
</svg>
