<svg width="24" height="24" viewBox="0 0 24 24" fill="none" xmlns="http://www.w3.org/2000/svg">
<path opacity="0.4" d="M16.19 2H7.81C4.17 2 2 4.17 2 7.81V16.18C2 19.83 4.17 22 7.81 22H16.18C19.82 22 21.99 19.83 21.99 16.19V7.81C22 4.17 19.83 2 16.19 2Z" fill="#17ACBE"/>
<path d="M15.5799 19.252C15.1699 19.252 14.8299 18.912 14.8299 18.502V14.602C14.8299 14.192 15.1699 13.852 15.5799 13.852C15.9899 13.852 16.3299 14.192 16.3299 14.602V18.502C16.3299 18.912 15.9899 19.252 15.5799 19.252ZM15.5799 8.2C15.1699 8.2 14.8299 7.86 14.8299 7.45V5.5C14.8299 5.09 15.1699 4.75 15.5799 4.75C15.9899 4.75 16.3299 5.09 16.3299 5.5V7.45C16.3299 7.86 15.9899 8.2 15.5799 8.2ZM8.41992 19.25C8.00992 19.25 7.66992 18.91 7.66992 18.5V16.55C7.66992 16.14 8.00992 15.8 8.41992 15.8C8.82992 15.8 9.16992 16.14 9.16992 16.55V18.5C9.16992 18.91 8.83992 19.25 8.41992 19.25ZM8.41992 10.15C8.00992 10.15 7.66992 9.81 7.66992 9.4V5.5C7.66992 5.09 8.00992 4.75 8.41992 4.75C8.82992 4.75 9.16992 5.09 9.16992 5.5V9.4C9.16992 9.81 8.83992 10.15 8.41992 10.15Z" fill="#17ACBE"/>
<path d="M15.5802 7.32788C14.0802 7.32788 12.8502 8.54788 12.8502 10.0479C12.8502 11.5479 14.0702 12.7779 15.5802 12.7779C17.0802 12.7779 18.3002 11.5579 18.3002 10.0479C18.3002 8.53788 17.0802 7.32788 15.5802 7.32788ZM8.4202 11.2299C6.9202 11.2299 5.7002 12.4499 5.7002 13.9599C5.7002 15.4699 6.9202 16.6799 8.4202 16.6799C9.9202 16.6799 11.1502 15.4599 11.1502 13.9599C11.1502 12.4599 9.9302 11.2299 8.4202 11.2299Z" fill="#17ACBE"/>
</svg>
