<svg width="25" height="25" viewBox="0 0 25 25" fill="none" xmlns="http://www.w3.org/2000/svg">
<path d="M16.9274 23.4375C17.9342 23.4375 18.7503 22.6213 18.7503 21.6146C18.7503 20.6078 17.9342 19.7917 16.9274 19.7917C15.9206 19.7917 15.1045 20.6078 15.1045 21.6146C15.1045 22.6213 15.9206 23.4375 16.9274 23.4375Z" fill="#17ACBE"/>
<path d="M8.59342 23.4375C9.60019 23.4375 10.4163 22.6213 10.4163 21.6146C10.4163 20.6078 9.60019 19.7917 8.59342 19.7917C7.58666 19.7917 6.77051 20.6078 6.77051 21.6146C6.77051 22.6213 7.58666 23.4375 8.59342 23.4375Z" fill="#17ACBE"/>
<path opacity="0.4" d="M5.04134 4.10417L4.83301 6.65625C4.79134 7.14584 5.17676 7.55209 5.66634 7.55209H21.6143C22.0518 7.55209 22.4163 7.21875 22.4476 6.78125C22.583 4.9375 21.1768 3.43751 19.333 3.43751H6.55175C6.44758 2.97917 6.23925 2.54167 5.91633 2.17708C5.40592 1.625 4.67676 1.30209 3.92676 1.30209H2.08301C1.65592 1.30209 1.30176 1.65625 1.30176 2.08334C1.30176 2.51042 1.65592 2.86459 2.08301 2.86459H3.89551C4.21843 2.86459 4.52051 3.00001 4.73926 3.22918C4.95801 3.46876 5.06217 3.78125 5.04134 4.10417Z" fill="#17ACBE"/>
<path d="M21.365 9.11459H5.3858C4.9483 9.11459 4.59413 9.44791 4.55246 9.875L4.17746 14.4063C4.03163 16.1771 5.42747 17.7083 7.20872 17.7083H18.792C20.3545 17.7083 21.7296 16.4271 21.8441 14.8646L22.1879 10C22.2296 9.52084 21.8545 9.11459 21.365 9.11459Z" fill="#17ACBE"/>
</svg>
