<svg width="24" height="24" viewBox="0 0 137 137" fill="none" xmlns="http://www.w3.org/2000/svg">
<path opacity="0.4" d="M23.804 87.3374L49.6627 113.196C54.7775 118.296 61.7056 121.16 68.9283 121.16C76.1511 121.16 83.0792 118.296 88.194 113.196L113.254 88.1366C118.353 83.0218 121.217 76.0937 121.217 68.871C121.217 61.6482 118.353 54.7201 113.254 49.6054L87.3377 23.8037C84.6583 21.1168 81.4447 19.0222 77.9048 17.6555C74.3649 16.2887 70.5776 15.6801 66.7877 15.8691L38.2461 17.2391C26.8294 17.7529 17.7531 26.8291 17.1823 38.1887L15.8123 66.7304C15.4698 74.4366 18.3811 81.9145 23.804 87.3374Z" fill="#17ACBE"/>
<path d="M54.2349 70.6749C58.5951 70.6749 62.7767 68.9429 65.8598 65.8598C68.9429 62.7767 70.6749 58.5951 70.6749 54.2349C70.6749 49.8748 68.9429 45.6932 65.8598 42.6101C62.7767 39.527 58.5951 37.7949 54.2349 37.7949C49.8748 37.7949 45.6932 39.527 42.6101 42.6101C39.527 45.6932 37.7949 49.8748 37.7949 54.2349C37.7949 58.5951 39.527 62.7767 42.6101 65.8598C45.6932 68.9429 49.8748 70.6749 54.2349 70.6749ZM74.2141 101.329C73.1295 101.329 72.0449 100.929 71.1887 100.073C70.3925 99.2672 69.946 98.1801 69.946 97.0474C69.946 95.9147 70.3925 94.8277 71.1887 94.022L94.022 71.1887C95.6774 69.5333 98.4174 69.5333 100.073 71.1887C101.728 72.8441 101.728 75.5841 100.073 77.2395L77.2395 100.073C76.3833 100.929 75.2987 101.329 74.2141 101.329Z" fill="#17ACBE"/>
</svg>
