<svg width="25" height="25" viewBox="0 0 25 25" fill="none" xmlns="http://www.w3.org/2000/svg">
<g clip-path="url(#clip0_358_39853)">
<g clip-path="url(#clip1_358_39853)">
<path opacity="0.4" d="M25.4718 8.3675V16.6325C25.4718 17.9858 24.7468 19.2425 23.5747 19.9313L16.3972 24.0758C15.2251 24.7525 13.7751 24.7525 12.5909 24.0758L5.41345 19.9313C4.83559 19.5962 4.35607 19.115 4.02308 18.536C3.69008 17.9569 3.51532 17.3005 3.51636 16.6325V8.3675C3.51636 7.01417 4.24136 5.7575 5.41345 5.06875L12.5909 0.924172C13.763 0.247505 15.213 0.247505 16.3972 0.924172L23.5747 5.06875C24.7468 5.7575 25.4718 7.00209 25.4718 8.3675Z" fill="#17ACBE"/>
<path d="M14.5024 12.5C15.2491 12.5 15.9652 12.2034 16.4932 11.6754C17.0212 11.1474 17.3178 10.4313 17.3178 9.68459C17.3178 8.93789 17.0212 8.22178 16.4932 7.69379C15.9652 7.16579 15.2491 6.86917 14.5024 6.86917C13.7557 6.86917 13.0396 7.16579 12.5116 7.69379C11.9836 8.22178 11.687 8.93789 11.687 9.68459C11.687 10.4313 11.9836 11.1474 12.5116 11.6754C13.0396 12.2034 13.7557 12.5 14.5024 12.5ZM17.7395 18.1284C18.7183 18.1284 19.2862 17.0409 18.7425 16.2313C17.9208 15.0109 16.3258 14.1893 14.5012 14.1893C12.6766 14.1893 11.0816 15.0109 10.26 16.2313C9.71621 17.0409 10.2841 18.1284 11.2629 18.1284H17.7395Z" fill="#17ACBE"/>
</g>
</g>
<defs>
<clipPath id="clip0_358_39853">
<rect width="25" height="25" fill="white"/>
</clipPath>
<clipPath id="clip1_358_39853">
<rect width="26" height="26" fill="white" transform="translate(0 -1)"/>
</clipPath>
</defs>
</svg>
